<?xml version='1.0' encoding='UTF-8'?>
<svg width="45mm" height="45mm" version="1.1" viewBox="0 0 45 45" xmlns="http://www.w3.org/2000/svg"><path d="M4,4H5V5H4zM5,4H6V5H5zM6,4H7V5H6zM7,4H8V5H7zM8,4H9V5H8zM9,4H10V5H9zM10,4H11V5H10zM15,4H16V5H15zM16,4H17V5H16zM18,4H19V5H18zM19,4H20V5H19zM20,4H21V5H20zM24,4H25V5H24zM25,4H26V5H25zM27,4H28V5H27zM28,4H29V5H28zM30,4H31V5H30zM31,4H32V5H31zM32,4H33V5H32zM34,4H35V5H34zM35,4H36V5H35zM36,4H37V5H36zM37,4H38V5H37zM38,4H39V5H38zM39,4H40V5H39zM40,4H41V5H40zM4,5H5V6H4zM10,5H11V6H10zM12,5H13V6H12zM16,5H17V6H16zM21,5H22V6H21zM23,5H24V6H23zM25,5H26V6H25zM27,5H28V6H27zM28,5H29V6H28zM30,5H31V6H30zM34,5H35V6H34zM40,5H41V6H40zM4,6H5V7H4zM6,6H7V7H6zM7,6H8V7H7zM8,6H9V7H8zM10,6H11V7H10zM14,6H15V7H14zM15,6H16V7H15zM17,6H18V7H17zM18,6H19V7H18zM20,6H21V7H20zM21,6H22V7H21zM23,6H24V7H23zM34,6H35V7H34zM36,6H37V7H36zM37,6H38V7H37zM38,6H39V7H38zM40,6H41V7H40zM4,7H5V8H4zM6,7H7V8H6zM7,7H8V8H7zM8,7H9V8H8zM10,7H11V8H10zM13,7H14V8H13zM15,7H16V8H15zM18,7H19V8H18zM21,7H22V8H21zM22,7H23V8H22zM23,7H24V8H23zM27,7H28V8H27zM29,7H30V8H29zM30,7H31V8H30zM32,7H33V8H32zM34,7H35V8H34zM36,7H37V8H36zM37,7H38V8H37zM38,7H39V8H38zM40,7H41V8H40zM4,8H5V9H4zM6,8H7V9H6zM7,8H8V9H7zM8,8H9V9H8zM10,8H11V9H10zM14,8H15V9H14zM16,8H17V9H16zM18,8H19V9H18zM19,8H20V9H19zM25,8H26V9H25zM26,8H27V9H26zM30,8H31V9H30zM31,8H32V9H31zM34,8H35V9H34zM36,8H37V9H36zM37,8H38V9H37zM38,8H39V9H38zM40,8H41V9H40zM4,9H5V10H4zM10,9H11V10H10zM12,9H13V10H12zM13,9H14V10H13zM15,9H16V10H15zM17,9H18V10H17zM18,9H19V10H18zM19,9H20V10H19zM20,9H21V10H20zM21,9H22V10H21zM26,9H27V10H26zM27,9H28V10H27zM32,9H33V10H32zM34,9H35V10H34zM40,9H41V10H40zM4,10H5V11H4zM5,10H6V11H5zM6,10H7V11H6zM7,10H8V11H7zM8,10H9V11H8zM9,10H10V11H9zM10,10H11V11H10zM12,10H13V11H12zM14,10H15V11H14zM16,10H17V11H16zM18,10H19V11H18zM20,10H21V11H20zM22,10H23V11H22zM24,10H25V11H24zM26,10H27V11H26zM28,10H29V11H28zM30,10H31V11H30zM32,10H33V11H32zM34,10H35V11H34zM35,10H36V11H35zM36,10H37V11H36zM37,10H38V11H37zM38,10H39V11H38zM39,10H40V11H39zM40,10H41V11H40zM12,11H13V12H12zM13,11H14V12H13zM14,11H15V12H14zM15,11H16V12H15zM16,11H17V12H16zM18,11H19V12H18zM20,11H21V12H20zM21,11H22V12H21zM22,11H23V12H22zM23,11H24V12H23zM24,11H25V12H24zM25,11H26V12H25zM28,11H29V12H28zM29,11H30V12H29zM8,12H9V13H8zM9,12H10V13H9zM10,12H11V13H10zM11,12H12V13H11zM13,12H14V13H13zM15,12H16V13H15zM18,12H19V13H18zM21,12H22V13H21zM22,12H23V13H22zM23,12H24V13H23zM24,12H25V13H24zM25,12H26V13H25zM26,12H27V13H26zM28,12H29V13H28zM29,12H30V13H29zM31,12H32V13H31zM32,12H33V13H32zM34,12H35V13H34zM35,12H36V13H35zM39,12H40V13H39zM4,13H5V14H4zM8,13H9V14H8zM9,13H10V14H9zM11,13H12V14H11zM12,13H13V14H12zM13,13H14V14H13zM15,13H16V14H15zM16,13H17V14H16zM18,13H19V14H18zM19,13H20V14H19zM21,13H22V14H21zM23,13H24V14H23zM24,13H25V14H24zM26,13H27V14H26zM30,13H31V14H30zM34,13H35V14H34zM37,13H38V14H37zM38,13H39V14H38zM5,14H6V15H5zM6,14H7V15H6zM7,14H8V15H7zM8,14H9V15H8zM10,14H11V15H10zM14,14H15V15H14zM15,14H16V15H15zM17,14H18V15H17zM18,14H19V15H18zM20,14H21V15H20zM21,14H22V15H21zM23,14H24V15H23zM24,14H25V15H24zM25,14H26V15H25zM26,14H27V15H26zM27,14H28V15H27zM29,14H30V15H29zM30,14H31V15H30zM31,14H32V15H31zM33,14H34V15H33zM36,14H37V15H36zM37,14H38V15H37zM5,15H6V16H5zM6,15H7V16H6zM7,15H8V16H7zM8,15H9V16H8zM9,15H10V16H9zM11,15H12V16H11zM13,15H14V16H13zM14,15H15V16H14zM15,15H16V16H15zM16,15H17V16H16zM17,15H18V16H17zM19,15H20V16H19zM23,15H24V16H23zM24,15H25V16H24zM27,15H28V16H27zM30,15H31V16H30zM31,15H32V16H31zM32,15H33V16H32zM33,15H34V16H33zM35,15H36V16H35zM36,15H37V16H36zM38,15H39V16H38zM4,16H5V17H4zM10,16H11V17H10zM11,16H12V17H11zM12,16H13V17H12zM14,16H15V17H14zM16,16H17V17H16zM19,16H20V17H19zM21,16H22V17H21zM23,16H24V17H23zM25,16H26V17H25zM33,16H34V17H33zM34,16H35V17H34zM38,16H39V17H38zM39,16H40V17H39zM5,17H6V18H5zM6,17H7V18H6zM7,17H8V18H7zM8,17H9V18H8zM9,17H10V18H9zM11,17H12V18H11zM12,17H13V18H12zM14,17H15V18H14zM16,17H17V18H16zM17,17H18V18H17zM19,17H20V18H19zM23,17H24V18H23zM25,17H26V18H25zM26,17H27V18H26zM27,17H28V18H27zM28,17H29V18H28zM29,17H30V18H29zM31,17H32V18H31zM32,17H33V18H32zM33,17H34V18H33zM36,17H37V18H36zM38,17H39V18H38zM4,18H5V19H4zM5,18H6V19H5zM6,18H7V19H6zM9,18H10V19H9zM10,18H11V19H10zM11,18H12V19H11zM12,18H13V19H12zM13,18H14V19H13zM18,18H19V19H18zM20,18H21V19H20zM21,18H22V19H21zM24,18H25V19H24zM26,18H27V19H26zM27,18H28V19H27zM28,18H29V19H28zM31,18H32V19H31zM33,18H34V19H33zM35,18H36V19H35zM37,18H38V19H37zM38,18H39V19H38zM39,18H40V19H39zM6,19H7V20H6zM7,19H8V20H7zM14,19H15V20H14zM19,19H20V20H19zM20,19H21V20H20zM22,19H23V20H22zM23,19H24V20H23zM25,19H26V20H25zM26,19H27V20H26zM28,19H29V20H28zM30,19H31V20H30zM33,19H34V20H33zM34,19H35V20H34zM35,19H36V20H35zM38,19H39V20H38zM40,19H41V20H40zM5,20H6V21H5zM6,20H7V21H6zM7,20H8V21H7zM10,20H11V21H10zM13,20H14V21H13zM15,20H16V21H15zM17,20H18V21H17zM19,20H20V21H19zM20,20H21V21H20zM26,20H27V21H26zM27,20H28V21H27zM28,20H29V21H28zM31,20H32V21H31zM33,20H34V21H33zM34,20H35V21H34zM37,20H38V21H37zM38,20H39V21H38zM39,20H40V21H39zM40,20H41V21H40zM4,21H5V22H4zM5,21H6V22H5zM8,21H9V22H8zM16,21H17V22H16zM17,21H18V22H17zM18,21H19V22H18zM20,21H21V22H20zM23,21H24V22H23zM26,21H27V22H26zM29,21H30V22H29zM31,21H32V22H31zM32,21H33V22H32zM33,21H34V22H33zM36,21H37V22H36zM37,21H38V22H37zM38,21H39V22H38zM4,22H5V23H4zM5,22H6V23H5zM7,22H8V23H7zM9,22H10V23H9zM10,22H11V23H10zM11,22H12V23H11zM12,22H13V23H12zM13,22H14V23H13zM14,22H15V23H14zM15,22H16V23H15zM18,22H19V23H18zM20,22H21V23H20zM22,22H23V23H22zM23,22H24V23H23zM26,22H27V23H26zM27,22H28V23H27zM28,22H29V23H28zM30,22H31V23H30zM31,22H32V23H31zM33,22H34V23H33zM35,22H36V23H35zM37,22H38V23H37zM6,23H7V24H6zM7,23H8V24H7zM8,23H9V24H8zM16,23H17V24H16zM19,23H20V24H19zM20,23H21V24H20zM21,23H22V24H21zM22,23H23V24H22zM23,23H24V24H23zM24,23H25V24H24zM27,23H28V24H27zM28,23H29V24H28zM30,23H31V24H30zM31,23H32V24H31zM33,23H34V24H33zM38,23H39V24H38zM39,23H40V24H39zM7,24H8V25H7zM9,24H10V25H9zM10,24H11V25H10zM13,24H14V25H13zM14,24H15V25H14zM17,24H18V25H17zM18,24H19V25H18zM19,24H20V25H19zM20,24H21V25H20zM25,24H26V25H25zM26,24H27V25H26zM28,24H29V25H28zM33,24H34V25H33zM34,24H35V25H34zM38,24H39V25H38zM39,24H40V25H39zM40,24H41V25H40zM5,25H6V26H5zM8,25H9V26H8zM11,25H12V26H11zM12,25H13V26H12zM19,25H20V26H19zM22,25H23V26H22zM23,25H24V26H23zM24,25H25V26H24zM27,25H28V26H27zM29,25H30V26H29zM30,25H31V26H30zM31,25H32V26H31zM33,25H34V26H33zM36,25H37V26H36zM6,26H7V27H6zM7,26H8V27H7zM10,26H11V27H10zM14,26H15V27H14zM15,26H16V27H15zM16,26H17V27H16zM23,26H24V27H23zM24,26H25V27H24zM27,26H28V27H27zM31,26H32V27H31zM32,26H33V27H32zM33,26H34V27H33zM37,26H38V27H37zM39,26H40V27H39zM6,27H7V28H6zM7,27H8V28H7zM8,27H9V28H8zM11,27H12V28H11zM12,27H13V28H12zM13,27H14V28H13zM14,27H15V28H14zM17,27H18V28H17zM19,27H20V28H19zM21,27H22V28H21zM22,27H23V28H22zM23,27H24V28H23zM24,27H25V28H24zM25,27H26V28H25zM26,27H27V28H26zM30,27H31V28H30zM32,27H33V28H32zM35,27H36V28H35zM38,27H39V28H38zM4,28H5V29H4zM5,28H6V29H5zM6,28H7V29H6zM8,28H9V29H8zM9,28H10V29H9zM10,28H11V29H10zM12,28H13V29H12zM16,28H17V29H16zM17,28H18V29H17zM19,28H20V29H19zM22,28H23V29H22zM24,28H25V29H24zM25,28H26V29H25zM26,28H27V29H26zM29,28H30V29H29zM30,28H31V29H30zM31,28H32V29H31zM34,28H35V29H34zM35,28H36V29H35zM36,28H37V29H36zM38,28H39V29H38zM39,28H40V29H39zM40,28H41V29H40zM4,29H5V30H4zM6,29H7V30H6zM9,29H10V30H9zM11,29H12V30H11zM16,29H17V30H16zM18,29H19V30H18zM20,29H21V30H20zM21,29H22V30H21zM22,29H23V30H22zM28,29H29V30H28zM29,29H30V30H29zM32,29H33V30H32zM33,29H34V30H33zM34,29H35V30H34zM35,29H36V30H35zM36,29H37V30H36zM37,29H38V30H37zM7,30H8V31H7zM9,30H10V31H9zM10,30H11V31H10zM11,30H12V31H11zM13,30H14V31H13zM14,30H15V31H14zM15,30H16V31H15zM16,30H17V31H16zM21,30H22V31H21zM23,30H24V31H23zM27,30H28V31H27zM28,30H29V31H28zM29,30H30V31H29zM30,30H31V31H30zM32,30H33V31H32zM33,30H34V31H33zM35,30H36V31H35zM37,30H38V31H37zM38,30H39V31H38zM39,30H40V31H39zM9,31H10V32H9zM12,31H13V32H12zM15,31H16V32H15zM16,31H17V32H16zM17,31H18V32H17zM19,31H20V32H19zM20,31H21V32H20zM21,31H22V32H21zM22,31H23V32H22zM27,31H28V32H27zM30,31H31V32H30zM34,31H35V32H34zM35,31H36V32H35zM38,31H39V32H38zM39,31H40V32H39zM4,32H5V33H4zM5,32H6V33H5zM7,32H8V33H7zM8,32H9V33H8zM10,32H11V33H10zM11,32H12V33H11zM12,32H13V33H12zM13,32H14V33H13zM15,32H16V33H15zM16,32H17V33H16zM17,32H18V33H17zM18,32H19V33H18zM19,32H20V33H19zM22,32H23V33H22zM28,32H29V33H28zM31,32H32V33H31zM32,32H33V33H32zM33,32H34V33H33zM34,32H35V33H34zM35,32H36V33H35zM36,32H37V33H36zM38,32H39V33H38zM39,32H40V33H39zM40,32H41V33H40zM12,33H13V34H12zM13,33H14V34H13zM15,33H16V34H15zM17,33H18V34H17zM18,33H19V34H18zM19,33H20V34H19zM20,33H21V34H20zM21,33H22V34H21zM27,33H28V34H27zM29,33H30V34H29zM32,33H33V34H32zM36,33H37V34H36zM37,33H38V34H37zM39,33H40V34H39zM4,34H5V35H4zM5,34H6V35H5zM6,34H7V35H6zM7,34H8V35H7zM8,34H9V35H8zM9,34H10V35H9zM10,34H11V35H10zM12,34H13V35H12zM14,34H15V35H14zM15,34H16V35H15zM16,34H17V35H16zM18,34H19V35H18zM23,34H24V35H23zM26,34H27V35H26zM27,34H28V35H27zM29,34H30V35H29zM32,34H33V35H32zM34,34H35V35H34zM36,34H37V35H36zM37,34H38V35H37zM38,34H39V35H38zM4,35H5V36H4zM10,35H11V36H10zM12,35H13V36H12zM15,35H16V36H15zM16,35H17V36H16zM19,35H20V36H19zM20,35H21V36H20zM24,35H25V36H24zM27,35H28V36H27zM28,35H29V36H28zM32,35H33V36H32zM36,35H37V36H36zM38,35H39V36H38zM40,35H41V36H40zM4,36H5V37H4zM6,36H7V37H6zM7,36H8V37H7zM8,36H9V37H8zM10,36H11V37H10zM12,36H13V37H12zM13,36H14V37H13zM17,36H18V37H17zM19,36H20V37H19zM20,36H21V37H20zM22,36H23V37H22zM23,36H24V37H23zM25,36H26V37H25zM28,36H29V37H28zM32,36H33V37H32zM33,36H34V37H33zM34,36H35V37H34zM35,36H36V37H35zM36,36H37V37H36zM37,36H38V37H37zM38,36H39V37H38zM39,36H40V37H39zM40,36H41V37H40zM4,37H5V38H4zM6,37H7V38H6zM7,37H8V38H7zM8,37H9V38H8zM10,37H11V38H10zM17,37H18V38H17zM19,37H20V38H19zM20,37H21V38H20zM21,37H22V38H21zM22,37H23V38H22zM32,37H33V38H32zM34,37H35V38H34zM37,37H38V38H37zM4,38H5V39H4zM6,38H7V39H6zM7,38H8V39H7zM8,38H9V39H8zM10,38H11V39H10zM13,38H14V39H13zM14,38H15V39H14zM15,38H16V39H15zM16,38H17V39H16zM17,38H18V39H17zM19,38H20V39H19zM21,38H22V39H21zM23,38H24V39H23zM24,38H25V39H24zM25,38H26V39H25zM29,38H30V39H29zM31,38H32V39H31zM32,38H33V39H32zM34,38H35V39H34zM35,38H36V39H35zM39,38H40V39H39zM4,39H5V40H4zM10,39H11V40H10zM16,39H17V40H16zM18,39H19V40H18zM19,39H20V40H19zM21,39H22V40H21zM22,39H23V40H22zM25,39H26V40H25zM28,39H29V40H28zM30,39H31V40H30zM31,39H32V40H31zM35,39H36V40H35zM38,39H39V40H38zM39,39H40V40H39zM4,40H5V41H4zM5,40H6V41H5zM6,40H7V41H6zM7,40H8V41H7zM8,40H9V41H8zM9,40H10V41H9zM10,40H11V41H10zM13,40H14V41H13zM15,40H16V41H15zM16,40H17V41H16zM17,40H18V41H17zM18,40H19V41H18zM21,40H22V41H21zM23,40H24V41H23zM26,40H27V41H26zM27,40H28V41H27zM31,40H32V41H31zM34,40H35V41H34zM35,40H36V41H35zM36,40H37V41H36zM38,40H39V41H38zM39,40H40V41H39zM40,40H41V41H40z" id="qr-path" fill="#000000" fill-opacity="1" fill-rule="nonzero" stroke="none" /></svg>